:FULLY-SPECIFIED
:FORCE-ALL-JOINTS-BE-3DOF
:DEGREES
49
root 8.56887 16.0016 -29.6499 6.49964 -11.3451 -3.34973
lfemur -35.2274 7.01955 -16.1749
ltibia 28.4237 0 0
lfoot -9.87347 9.53748 0
ltoes -7.68742 0 0
rfemur 10.7729 2.73512 22.1401
rtibia 29.4401 0 0
rfoot 1.0646 -5.62556 0
rtoes -17.486 0 0
lowerback -6.72683 1.22989 0.784854
upperback -1.69614 1.42039 3.02944
thorax 1.96368 0.739988 2.82306
lowerneck -21.9382 -4.19573 -11.5597
upperneck 17.0148 -5.12788 13.7141
head 9.68308 -1.63417 6.02837
lclavicle 2.89377e-14 4.48122e-15 0
lhumerus -42.8234 -5.68379 89.8545
lradius 22.0585 0 0
lwrist -1.90657 0 0
lhand -2.69122 -21.1871 0
lfingers 7.12502 0 0
lthumb 22.9992 7.33437 0
rclavicle 2.89377e-14 4.48122e-15 0
rhumerus -43.6636 16.9423 -92.7081
rradius 48.272 0 0
rwrist -23.9812 0 0
rhand -29.5751 -28.4751 0
rfingers 7.12502 0 0
rthumb -2.9072 -58.4362 0
50
root 8.60884 16.0234 -29.4913 6.41253 -11.4889 -3.02817
lfemur -34.7838 7.17829 -16.7992
ltibia 28.9651 0 0
lfoot -9.83073 9.35596 0
ltoes -7.33022 0 0
rfemur 9.90128 2.42387 21.5104
rtibia 31.7417 0 0
rfoot 2.00409 -5.9832 0
rtoes -16.0982 0 0
lowerback -6.58252 1.18949 0.522542
upperback -1.74834 1.39196 2.98219
thorax 1.82513 0.725637 2.91521
lowerneck -22.0168 -4.1794 -11.5571
upperneck 17.0499 -5.0867 13.6522
head 9.70129 -1.61876 6.01296
lclavicle 2.87415e-14 4.00239e-15 0
lhumerus -42.7163 -5.48218 89.7326
lradius 21.814 0 0
lwrist -2.20516 0 0
lhand -2.1055 -20.7806 0
lfingers 7.12502 0 0
lthumb 23.5617 7.67711 0
rclavicle 2.87415e-14 4.00239e-15 0
rhumerus -43.594 16.6371 -92.6069
rradius 47.3251 0 0
rwrist -23.5346 0 0
rhand -29.5595 -28.251 0
rfingers 7.12502 0 0
rthumb -2.89212 -58.2122 0
51
root 8.64841 16.0451 -29.3335 6.32483 -11.6218 -2.70726
lfemur -34.3305 7.33091 -17.4221
ltibia 29.4993 0 0
lfoot -9.79562 9.17558 0
ltoes -6.97454 0 0
rfemur 9.0095 2.11838 20.8897
rtibia 34.0192 0 0
rfoot 2.91402 -6.33804 0
rtoes -14.7284 0 0
lowerback -6.43969 1.14745 0.260778
upperback -1.79881 1.36131 2.93531
thorax 1.68948 0.710085 3.00728
lowerneck -22.0928 -4.16408 -11.5563
upperneck 17.0853 -5.04673 13.5908
head 9.71938 -1.6041 5.99783
lclavicle 2.85165e-14 3.53677e-15 0
lhumerus -42.5947 -5.29165 89.6102
lradius 21.5823 0 0
lwrist -2.49006 0 0
lhand -1.53933 -20.3835 0
lfingers 7.12502 0 0
lthumb 24.1054 8.01258 0
rclavicle 2.85165e-14 3.53677e-15 0
rhumerus -43.5239 16.334 -92.5009
rradius 46.3891 0 0
rwrist -23.0949 0 0
rhand -29.5449 -28.0251 0
rfingers 7.12502 0 0
rthumb -2.87803 -57.9864 0
52
root 8.68743 16.0665 -29.1767 6.23685 -11.743 -2.38862
lfemur -33.8678 7.47596 -18.0403
ltibia 30.0211 0 0
lfoot -9.76879 8.99752 0
ltoes -6.62191 0 0
rfemur 8.10157 1.82069 20.2812
rtibia 36.2587 0 0
rfoot 3.78624 -6.68853 0
rtoes -13.3876 0 0
lowerback -6.2995 1.10387 0.000913203
upperback -1.84711 1.32842 2.88912
thorax 1.5579 0.693324 3.09889
lowerneck -22.1655 -4.14987 -11.5574
upperneck 17.1213 -5.00815 13.5298
head 9.73738 -1.59031 5.98297
lclavicle 2.82626e-14 3.08717e-15 0
lhumerus -42.458 -5.11485 89.4881
lradius 21.3657 0 0
lwrist -2.75908 0 0
lhand -0.996915 -19.9987 0
lfingers 7.12502 0 0
lthumb 24.6263 8.33826 0
rclavicle 2.82626e-14 3.08717e-15 0
rhumerus -43.454 16.0348 -92.3907
rradius 45.4693 0 0
rwrist -22.6646 0 0
rhand -29.5312 -27.7987 0
rfingers 7.12502 0 0
rthumb -2.86475 -57.76 0
53
root 8.72578 16.0875 -29.0211 6.14889 -11.8518 -2.0739
lfemur -33.3962 7.61194 -18.6504
ltibia 30.5253 0 0
lfoot -9.7509 8.82293 0
ltoes -6.27386 0 0
rfemur 7.1815 1.53283 19.6884
rtibia 38.4465 0 0
rfoot 4.6126 -7.03315 0
rtoes -12.0867 0 0
lowerback -6.16309 1.05888 -0.255699
upperback -1.89278 1.29331 2.84395
thorax 1.43155 0.675346 3.18964
lowerneck -22.2347 -4.13686 -11.5603
upperneck 17.158 -4.97117 13.4693
head 9.75532 -1.57748 5.96837
lclavicle 2.79796e-14 2.65638e-15 0
lhumerus -42.3056 -4.95441 89.3673
lradius 21.1665 0 0
lwrist -3.01002 0 0
lhand -0.482437 -19.629 0
lfingers 7.12502 0 0
lthumb 25.1204 8.65166 0
rclavicle 2.79796e-14 2.65638e-15 0
rhumerus -43.3852 15.741 -92.2772
rradius 44.5709 0 0
rwrist -22.2464 0 0
rhand -29.5181 -27.5728 0
rfingers 7.12502 0 0
rthumb -2.85212 -57.5342 0
54
root 8.76331 16.108 -28.8667 6.06124 -11.9475 -1.76475
lfemur -32.9161 7.73741 -19.2493
ltibia 31.0068 0 0
lfoot -9.74258 8.65298 0
ltoes -5.93192 0 0
rfemur 6.25329 1.25684 19.1147
rtibia 40.5685 0 0
rfoot 5.38494 -7.37036 0
rtoes -10.8365 0 0
lowerback -6.03161 1.01257 -0.507706
upperback -1.93537 1.25595 2.80012
thorax 1.31158 0.656142 3.27913
lowerneck -22.3 -4.12517 -11.5651
upperneck 17.1956 -4.93597 13.4093
head 9.77323 -1.56572 5.95403
lclavicle 2.76673e-14 2.24722e-15 0
lhumerus -42.1371 -4.81294 89.2487
lradius 20.9869 0 0
lwrist -3.24069 0 0
lhand -8.70186e-05 -19.2776 0
lfingers 7.12502 0 0
lthumb 25.5836 8.95027 0
rclavicle 2.76673e-14 2.24722e-15 0
rhumerus -43.3183 15.4546 -92.1613
rradius 43.699 0 0
rwrist -21.8428 0 0
rhand -29.5055 -27.3487 0
rfingers 7.12502 0 0
rthumb -2.83997 -57.3101 0
55
root 8.7999 16.1278 -28.7139 5.9742 -12.0293 -1.46281
lfemur -32.428 7.85088 -19.8336
ltibia 31.4605 0 0
lfoot -9.7445 8.48883 0
ltoes -5.59761 0 0
rfemur 5.32095 0.994773 18.5633
rtibia 42.6112 0 0
rfoot 6.09513 -7.69862 0
rtoes -9.64786 0 0
lowerback -5.9062 0.965052 -0.753754
upperback -1.97442 1.21637 2.75797
thorax 1.19914 0.635704 3.36698
lowerneck -22.361 -4.11489 -11.5719
upperneck 17.2343 -4.90277 13.3499
head 9.79114 -1.55513 5.93993
lclavicle 2.73254e-14 1.86247e-15 0
lhumerus -41.952 -4.69309 89.1332
lradius 20.8291 0 0
lwrist -3.44889 0 0
lhand 0.445946 -18.9473 0
lfingers 7.12502 0 0
lthumb 26.0119 9.23158 0
rclavicle 2.73254e-14 1.86247e-15 0
rhumerus -43.2539 15.1771 -92.0436
rradius 42.859 0 0
rwrist -21.4563 0 0
rhand -29.4933 -27.1275 0
rfingers 7.12502 0 0
rthumb -2.82814 -57.0889 0
56
root 8.83541 16.1469 -28.5627 5.88807 -12.0966 -1.1697
lfemur -31.9323 7.95089 -20.4001
ltibia 31.8811 0 0
lfoot -9.75729 8.33165 0
ltoes -5.27246 0 0
rfemur 4.38851 0.748655 18.0378
rtibia 44.5606 0 0
rfoot 6.735 -8.0164 0
rtoes -8.53177 0 0
lowerback -5.78803 0.916442 -0.992493
upperback -2.0095 1.17454 2.71782
thorax 1.09541 0.614025 3.45279
lowerneck -22.4172 -4.10612 -11.5808
upperneck 17.2744 -4.87175 13.2911
head 9.80907 -1.54581 5.92607
lclavicle 2.69539e-14 1.50495e-15 0
lhumerus -41.7497 -4.59747 89.0217
lradius 20.6954 0 0
lwrist -3.63244 0 0
lhand 0.851473 -18.6411 0
lfingers 7.12502 0 0
lthumb 26.4013 9.49309 0
rclavicle 2.69539e-14 1.50495e-15 0
rhumerus -43.193 14.9103 -91.9251
rradius 42.0559 0 0
rwrist -21.0896 0 0
rhand -29.4812 -26.9104 0
rfingers 7.12502 0 0
rthumb -2.81645 -56.8719 0
57
root 8.8697 16.165 -28.4132 5.80314 -12.1485 -0.887089
lfemur -31.4295 8.03596 -20.9453
ltibia 32.2634 0 0
lfoot -9.78162 8.18259 0
ltoes -4.958 0 0
rfemur 3.45997 0.520527 17.5415
rtibia 46.4029 0 0
rfoot 7.29642 -8.32217 0
rtoes -7.4991 0 0
lowerback -5.67822 0.866845 -1.22257
upperback -2.04015 1.13047 2.67999
thorax 1.00152 0.591095 3.53618
lowerneck -22.4684 -4.09897 -11.5917
upperneck 17.316 -4.8431 13.2328
head 9.82706 -1.53787 5.91243
lclavicle 2.65525e-14 1.17746e-15 0
lhumerus -41.5296 -4.52873 88.9151
lradius 20.5879 0 0
lwrist -3.78913 0 0
lhand 1.2123 -18.362 0
lfingers 7.12502 0 0
lthumb 26.7478 9.73229 0
rclavicle 2.65525e-14 1.17746e-15 0
rhumerus -43.1363 14.6559 -91.8064
rradius 41.295 0 0
rwrist -20.7453 0 0
rhand -29.4691 -26.6986 0
rfingers 7.12502 0 0
rthumb -2.80474 -56.6602 0
